<mxfile host="app.diagrams.net" modified="2022-03-20T18:14:05.959Z" agent="5.0 (Macintosh; Intel Mac OS X 10_15_7) AppleWebKit/605.1.15 (KHTML, like Gecko) Version/15.3 Safari/605.1.15" etag="z9yI9HZ3F_9OA-SQY3HF" version="17.1.3" type="github">
  <diagram id="z6yHJpWlaKmJ-RltGOB4" name="Page-1">
    <mxGraphModel dx="946" dy="1814" grid="1" gridSize="10" guides="1" tooltips="1" connect="1" arrows="1" fold="1" page="1" pageScale="1" pageWidth="827" pageHeight="1169" math="0" shadow="0">
      <root>
        <mxCell id="0" />
        <mxCell id="1" parent="0" />
        <mxCell id="sODzC4HWJ8rynniA_-NJ-1" value="&lt;b&gt;Consulting&lt;br&gt;#5&lt;br&gt;&lt;/b&gt;" style="rounded=0;whiteSpace=wrap;html=1;" parent="1" vertex="1">
          <mxGeometry x="294" y="-890" width="120" height="60" as="geometry" />
        </mxCell>
        <mxCell id="sODzC4HWJ8rynniA_-NJ-24" value="&lt;b&gt;Moderation&lt;br&gt;#3&lt;br&gt;&lt;/b&gt;" style="rounded=0;whiteSpace=wrap;html=1;" parent="1" vertex="1">
          <mxGeometry x="650" y="-890" width="120" height="60" as="geometry" />
        </mxCell>
        <mxCell id="sODzC4HWJ8rynniA_-NJ-26" value="Analysts" style="rounded=1;whiteSpace=wrap;html=1;" parent="1" vertex="1">
          <mxGeometry x="480" y="-1100" width="120" height="60" as="geometry" />
        </mxCell>
        <mxCell id="sODzC4HWJ8rynniA_-NJ-31" value="" style="endArrow=classic;startArrow=classic;html=1;rounded=0;" parent="1" edge="1">
          <mxGeometry width="50" height="50" relative="1" as="geometry">
            <mxPoint x="310" y="-1060" as="sourcePoint" />
            <mxPoint x="470" y="-1059.5" as="targetPoint" />
          </mxGeometry>
        </mxCell>
        <mxCell id="sODzC4HWJ8rynniA_-NJ-33" value="Leonie" style="ellipse;whiteSpace=wrap;html=1;aspect=fixed;fillColor=#60a917;fontColor=#ffffff;strokeColor=#2D7600;" parent="1" vertex="1">
          <mxGeometry x="575" y="-1050" width="30" height="30" as="geometry" />
        </mxCell>
        <mxCell id="sODzC4HWJ8rynniA_-NJ-35" value="Den" style="ellipse;whiteSpace=wrap;html=1;aspect=fixed;fillColor=#f5f5f5;gradientColor=#b3b3b3;strokeColor=#666666;" parent="1" vertex="1">
          <mxGeometry x="595" y="-1110" width="30" height="30" as="geometry" />
        </mxCell>
        <mxCell id="sODzC4HWJ8rynniA_-NJ-37" value="" style="endArrow=none;html=1;rounded=0;" parent="1" edge="1">
          <mxGeometry width="50" height="50" relative="1" as="geometry">
            <mxPoint x="350" y="-920" as="sourcePoint" />
            <mxPoint x="710" y="-920" as="targetPoint" />
            <Array as="points" />
          </mxGeometry>
        </mxCell>
        <mxCell id="sODzC4HWJ8rynniA_-NJ-46" value="# of analysist varies from 2 to 4" style="text;html=1;align=center;verticalAlign=middle;resizable=0;points=[];autosize=1;strokeColor=none;fillColor=none;fontStyle=1" parent="1" vertex="1">
          <mxGeometry x="605" y="-1070" width="190" height="20" as="geometry" />
        </mxCell>
        <mxCell id="sODzC4HWJ8rynniA_-NJ-51" value="Analyze the problem an Issue from provided data" style="text;html=1;strokeColor=none;fillColor=none;align=center;verticalAlign=middle;whiteSpace=wrap;rounded=0;" parent="1" vertex="1">
          <mxGeometry x="320" y="-1060" width="140" height="30" as="geometry" />
        </mxCell>
        <mxCell id="sODzC4HWJ8rynniA_-NJ-57" value="Undertaking&lt;br&gt;The Project?" style="text;html=1;strokeColor=none;fillColor=none;align=center;verticalAlign=middle;whiteSpace=wrap;rounded=0;fontStyle=1" parent="1" vertex="1">
          <mxGeometry x="400" y="-1000" width="100" height="60" as="geometry" />
        </mxCell>
        <mxCell id="sODzC4HWJ8rynniA_-NJ-61" value="Decision&amp;nbsp;" style="rhombus;whiteSpace=wrap;html=1;" parent="1" vertex="1">
          <mxGeometry x="500" y="-1000" width="80" height="60" as="geometry" />
        </mxCell>
        <mxCell id="sODzC4HWJ8rynniA_-NJ-63" value="" style="endArrow=classic;html=1;rounded=0;" parent="1" source="sODzC4HWJ8rynniA_-NJ-61" edge="1">
          <mxGeometry width="50" height="50" relative="1" as="geometry">
            <mxPoint x="520" y="-900" as="sourcePoint" />
            <mxPoint x="540" y="-920" as="targetPoint" />
          </mxGeometry>
        </mxCell>
        <mxCell id="sODzC4HWJ8rynniA_-NJ-64" value="Yes" style="text;html=1;strokeColor=none;fillColor=none;align=center;verticalAlign=middle;whiteSpace=wrap;rounded=0;fontStyle=1" parent="1" vertex="1">
          <mxGeometry x="530" y="-950" width="60" height="30" as="geometry" />
        </mxCell>
        <mxCell id="sODzC4HWJ8rynniA_-NJ-67" style="edgeStyle=none;rounded=0;orthogonalLoop=1;jettySize=auto;html=1;entryX=1;entryY=0.75;entryDx=0;entryDy=0;" parent="1" edge="1">
          <mxGeometry relative="1" as="geometry">
            <mxPoint x="630" y="-967.5" as="sourcePoint" />
            <mxPoint x="630" y="-967.5" as="targetPoint" />
          </mxGeometry>
        </mxCell>
        <mxCell id="sODzC4HWJ8rynniA_-NJ-70" style="edgeStyle=none;rounded=0;orthogonalLoop=1;jettySize=auto;html=1;exitX=0;exitY=0.5;exitDx=0;exitDy=0;" parent="1" edge="1">
          <mxGeometry relative="1" as="geometry">
            <mxPoint x="570" y="-975" as="sourcePoint" />
            <mxPoint x="570" y="-975" as="targetPoint" />
          </mxGeometry>
        </mxCell>
        <mxCell id="sODzC4HWJ8rynniA_-NJ-74" value="" style="endArrow=classic;html=1;rounded=0;exitX=1;exitY=0.5;exitDx=0;exitDy=0;" parent="1" source="sODzC4HWJ8rynniA_-NJ-61" edge="1">
          <mxGeometry width="50" height="50" relative="1" as="geometry">
            <mxPoint x="590" y="-940" as="sourcePoint" />
            <mxPoint x="640" y="-970" as="targetPoint" />
          </mxGeometry>
        </mxCell>
        <mxCell id="sODzC4HWJ8rynniA_-NJ-75" value="NO" style="text;html=1;align=center;verticalAlign=middle;whiteSpace=wrap;rounded=0;fontStyle=1;" parent="1" vertex="1">
          <mxGeometry x="575" y="-995" width="60" height="35" as="geometry" />
        </mxCell>
        <mxCell id="sODzC4HWJ8rynniA_-NJ-77" value="Terminate" style="strokeWidth=2;html=1;shape=mxgraph.flowchart.terminator;whiteSpace=wrap;fillColor=#647687;fontColor=#ffffff;strokeColor=#314354;" parent="1" vertex="1">
          <mxGeometry x="650" y="-1010" width="100" height="60" as="geometry" />
        </mxCell>
        <mxCell id="sODzC4HWJ8rynniA_-NJ-78" value="&amp;nbsp;Clients &amp;nbsp;" style="strokeWidth=2;html=1;shape=mxgraph.flowchart.start_1;whiteSpace=wrap;fillColor=#f5f5f5;gradientColor=#b3b3b3;strokeColor=#666666;" parent="1" vertex="1">
          <mxGeometry x="164" y="-1090" width="130" height="60" as="geometry" />
        </mxCell>
        <mxCell id="sODzC4HWJ8rynniA_-NJ-79" value="Leonie" style="ellipse;whiteSpace=wrap;html=1;aspect=fixed;fillColor=#60a917;fontColor=#ffffff;strokeColor=#2D7600;" parent="1" vertex="1">
          <mxGeometry x="720" y="-1025" width="30" height="30" as="geometry" />
        </mxCell>
        <mxCell id="sODzC4HWJ8rynniA_-NJ-93" value="" style="endArrow=classic;html=1;rounded=0;" parent="1" edge="1">
          <mxGeometry width="50" height="50" relative="1" as="geometry">
            <mxPoint x="350" y="-920" as="sourcePoint" />
            <mxPoint x="350" y="-890" as="targetPoint" />
          </mxGeometry>
        </mxCell>
        <mxCell id="sODzC4HWJ8rynniA_-NJ-94" value="" style="endArrow=classic;html=1;rounded=0;entryX=0.5;entryY=0;entryDx=0;entryDy=0;" parent="1" target="sODzC4HWJ8rynniA_-NJ-24" edge="1">
          <mxGeometry width="50" height="50" relative="1" as="geometry">
            <mxPoint x="710" y="-920" as="sourcePoint" />
            <mxPoint x="750" y="-920" as="targetPoint" />
          </mxGeometry>
        </mxCell>
        <mxCell id="sODzC4HWJ8rynniA_-NJ-95" value="CONTRACT" style="swimlane;fontStyle=1;childLayout=stackLayout;horizontal=1;startSize=30;horizontalStack=0;resizeParent=1;resizeParentMax=0;resizeLast=0;collapsible=1;marginBottom=0;" parent="1" vertex="1">
          <mxGeometry x="470" y="-850" width="140" height="90" as="geometry" />
        </mxCell>
        <mxCell id="sODzC4HWJ8rynniA_-NJ-96" value="Content Strategy" style="text;strokeColor=none;fillColor=none;align=left;verticalAlign=middle;spacingLeft=4;spacingRight=4;overflow=hidden;points=[[0,0.5],[1,0.5]];portConstraint=eastwest;rotatable=0;" parent="sODzC4HWJ8rynniA_-NJ-95" vertex="1">
          <mxGeometry y="30" width="140" height="30" as="geometry" />
        </mxCell>
        <mxCell id="sODzC4HWJ8rynniA_-NJ-97" value="Costs and Â Payment" style="text;strokeColor=none;fillColor=none;align=left;verticalAlign=middle;spacingLeft=4;spacingRight=4;overflow=hidden;points=[[0,0.5],[1,0.5]];portConstraint=eastwest;rotatable=0;" parent="sODzC4HWJ8rynniA_-NJ-95" vertex="1">
          <mxGeometry y="60" width="140" height="30" as="geometry" />
        </mxCell>
        <mxCell id="sODzC4HWJ8rynniA_-NJ-99" value="Bertrand" style="ellipse;whiteSpace=wrap;html=1;aspect=fixed;fillColor=#e51400;fontColor=#ffffff;strokeColor=#B20000;" parent="1" vertex="1">
          <mxGeometry x="250" y="-920" width="30" height="30" as="geometry" />
        </mxCell>
        <mxCell id="sODzC4HWJ8rynniA_-NJ-100" value="Leo" style="ellipse;whiteSpace=wrap;html=1;aspect=fixed;fillColor=#e51400;fontColor=#ffffff;strokeColor=#B20000;" parent="1" vertex="1">
          <mxGeometry x="750" y="-920" width="30" height="30" as="geometry" />
        </mxCell>
        <mxCell id="sODzC4HWJ8rynniA_-NJ-105" value="" style="endArrow=classic;html=1;rounded=0;" parent="1" edge="1">
          <mxGeometry width="50" height="50" relative="1" as="geometry">
            <mxPoint x="360" y="-820" as="sourcePoint" />
            <mxPoint x="450" y="-770" as="targetPoint" />
          </mxGeometry>
        </mxCell>
        <mxCell id="sODzC4HWJ8rynniA_-NJ-107" value="" style="endArrow=classic;html=1;rounded=0;" parent="1" edge="1">
          <mxGeometry width="50" height="50" relative="1" as="geometry">
            <mxPoint x="690" y="-820" as="sourcePoint" />
            <mxPoint x="630" y="-770" as="targetPoint" />
          </mxGeometry>
        </mxCell>
        <mxCell id="sODzC4HWJ8rynniA_-NJ-110" value="Team lead and # of moderators determined the Cost associated&amp;nbsp;" style="text;html=1;strokeColor=none;fillColor=none;align=center;verticalAlign=middle;whiteSpace=wrap;rounded=0;" parent="1" vertex="1">
          <mxGeometry x="660" y="-790" width="140" height="50" as="geometry" />
        </mxCell>
        <mxCell id="sODzC4HWJ8rynniA_-NJ-111" value="# of consultant helping you Grow a strategic Business plan determined the cost.&lt;br&gt;" style="text;html=1;strokeColor=none;fillColor=none;align=center;verticalAlign=middle;whiteSpace=wrap;rounded=0;" parent="1" vertex="1">
          <mxGeometry x="190" y="-780" width="100" height="20" as="geometry" />
        </mxCell>
        <mxCell id="sODzC4HWJ8rynniA_-NJ-112" value="&lt;u&gt;&lt;b&gt;Designer&lt;/b&gt;&lt;br&gt;&lt;/u&gt;Develop&amp;nbsp;strategic Thinking&amp;nbsp;&lt;br&gt;#3" style="rounded=0;whiteSpace=wrap;html=1;" parent="1" vertex="1">
          <mxGeometry x="290" y="-660" width="120" height="60" as="geometry" />
        </mxCell>
        <mxCell id="sODzC4HWJ8rynniA_-NJ-113" value="&lt;b&gt;&lt;u&gt;Marketing&lt;/u&gt;&lt;br&gt;&lt;/b&gt;Execution Planning&lt;br&gt;# 5 Marketors" style="rounded=0;whiteSpace=wrap;html=1;" parent="1" vertex="1">
          <mxGeometry x="480" y="-670" width="120" height="60" as="geometry" />
        </mxCell>
        <mxCell id="sODzC4HWJ8rynniA_-NJ-114" value="&lt;b&gt;&lt;u&gt;Finance&lt;br&gt;&lt;/u&gt;&lt;/b&gt;#2" style="rounded=0;whiteSpace=wrap;html=1;" parent="1" vertex="1">
          <mxGeometry x="650" y="-670" width="120" height="60" as="geometry" />
        </mxCell>
        <mxCell id="sODzC4HWJ8rynniA_-NJ-115" value="Pat" style="ellipse;whiteSpace=wrap;html=1;aspect=fixed;fillColor=#e3c800;fontColor=#000000;strokeColor=#B09500;" parent="1" vertex="1">
          <mxGeometry x="760" y="-630" width="30" height="30" as="geometry" />
        </mxCell>
        <mxCell id="sODzC4HWJ8rynniA_-NJ-116" value="Steven" style="ellipse;whiteSpace=wrap;html=1;aspect=fixed;fillColor=#e3c800;fontColor=#000000;strokeColor=#B09500;" parent="1" vertex="1">
          <mxGeometry x="575" y="-620" width="30" height="30" as="geometry" />
        </mxCell>
        <mxCell id="sODzC4HWJ8rynniA_-NJ-117" value="Andy" style="ellipse;whiteSpace=wrap;html=1;aspect=fixed;fillColor=#e3c800;fontColor=#000000;strokeColor=#B09500;" parent="1" vertex="1">
          <mxGeometry x="280" y="-620" width="30" height="30" as="geometry" />
        </mxCell>
        <mxCell id="sODzC4HWJ8rynniA_-NJ-129" value="IT Department&lt;br&gt;#2&amp;nbsp;" style="shape=parallelogram;perimeter=parallelogramPerimeter;whiteSpace=wrap;html=1;fixedSize=1;" parent="1" vertex="1">
          <mxGeometry x="470" y="-560" width="120" height="60" as="geometry" />
        </mxCell>
        <mxCell id="sODzC4HWJ8rynniA_-NJ-130" value="This process is meant to&amp;nbsp;&lt;br&gt;reliable flow of leads that&lt;br&gt;would allow us to&amp;nbsp;&lt;br&gt;accelerate growth and put&amp;nbsp;&lt;br&gt;our client and our company&amp;nbsp;&lt;br&gt;on a faster tract to achieving&amp;nbsp;&lt;br&gt;wealth." style="text;html=1;align=center;verticalAlign=middle;resizable=0;points=[];autosize=1;strokeColor=none;fillColor=none;fontStyle=1;strokeWidth=0;" parent="1" vertex="1">
          <mxGeometry x="635" y="-440" width="180" height="100" as="geometry" />
        </mxCell>
        <mxCell id="sODzC4HWJ8rynniA_-NJ-131" value="&lt;font style=&quot;font-size: 10px&quot;&gt;&lt;span&gt;Stored input &amp;amp;&lt;/span&gt;&lt;span&gt;Output of our&amp;nbsp;&lt;/span&gt;&lt;br&gt;&lt;span&gt;Clients from the lead consultant and lead Moderator: for referral,&lt;/span&gt;&lt;br&gt;&lt;span&gt;Connectivity, and future performance&lt;/span&gt;&lt;/font&gt;" style="text;html=1;align=center;verticalAlign=middle;resizable=0;points=[];autosize=1;strokeColor=none;fillColor=none;fontStyle=1" parent="1" vertex="1">
          <mxGeometry x="150" y="-535" width="320" height="50" as="geometry" />
        </mxCell>
        <mxCell id="sODzC4HWJ8rynniA_-NJ-132" value="TED" style="ellipse;whiteSpace=wrap;html=1;aspect=fixed;fillColor=#e3c800;strokeColor=#B09500;fontColor=#000000;" parent="1" vertex="1">
          <mxGeometry x="480" y="-580" width="30" height="30" as="geometry" />
        </mxCell>
        <mxCell id="sODzC4HWJ8rynniA_-NJ-133" value="Den" style="ellipse;whiteSpace=wrap;html=1;aspect=fixed;fillColor=#f5f5f5;gradientColor=#b3b3b3;strokeColor=#666666;" parent="1" vertex="1">
          <mxGeometry x="590" y="-860" width="30" height="30" as="geometry" />
        </mxCell>
        <mxCell id="sODzC4HWJ8rynniA_-NJ-134" value="Den" style="ellipse;whiteSpace=wrap;html=1;aspect=fixed;fillColor=#f5f5f5;gradientColor=#b3b3b3;strokeColor=#666666;" parent="1" vertex="1">
          <mxGeometry x="580" y="-430" width="30" height="30" as="geometry" />
        </mxCell>
        <mxCell id="sODzC4HWJ8rynniA_-NJ-136" value="Controller&lt;br&gt;#1" style="rounded=1;whiteSpace=wrap;html=1;fillColor=#f5f5f5;gradientColor=#b3b3b3;strokeColor=#666666;" parent="1" vertex="1">
          <mxGeometry x="475" y="-410" width="120" height="60" as="geometry" />
        </mxCell>
        <mxCell id="sODzC4HWJ8rynniA_-NJ-137" value="" style="endArrow=none;html=1;rounded=0;" parent="1" edge="1">
          <mxGeometry width="50" height="50" relative="1" as="geometry">
            <mxPoint x="190" y="-700" as="sourcePoint" />
            <mxPoint x="190" y="-860" as="targetPoint" />
          </mxGeometry>
        </mxCell>
        <mxCell id="sODzC4HWJ8rynniA_-NJ-145" value="" style="endArrow=none;html=1;rounded=0;" parent="1" edge="1">
          <mxGeometry width="50" height="50" relative="1" as="geometry">
            <mxPoint x="700" y="-700" as="sourcePoint" />
            <mxPoint x="800" y="-700" as="targetPoint" />
          </mxGeometry>
        </mxCell>
        <mxCell id="sODzC4HWJ8rynniA_-NJ-151" value="" style="endArrow=none;html=1;rounded=0;" parent="1" edge="1">
          <mxGeometry width="50" height="50" relative="1" as="geometry">
            <mxPoint x="130" y="-370" as="sourcePoint" />
            <mxPoint x="460" y="-370" as="targetPoint" />
          </mxGeometry>
        </mxCell>
        <mxCell id="sODzC4HWJ8rynniA_-NJ-157" value="" style="endArrow=none;html=1;rounded=0;" parent="1" edge="1">
          <mxGeometry width="50" height="50" relative="1" as="geometry">
            <mxPoint x="130" y="-370" as="sourcePoint" />
            <mxPoint x="130" y="-1040" as="targetPoint" />
          </mxGeometry>
        </mxCell>
        <mxCell id="sODzC4HWJ8rynniA_-NJ-158" value="" style="endArrow=classic;html=1;rounded=0;entryX=0.046;entryY=0.833;entryDx=0;entryDy=0;entryPerimeter=0;" parent="1" target="sODzC4HWJ8rynniA_-NJ-78" edge="1">
          <mxGeometry width="50" height="50" relative="1" as="geometry">
            <mxPoint x="130" y="-1040" as="sourcePoint" />
            <mxPoint x="180" y="-1060" as="targetPoint" />
          </mxGeometry>
        </mxCell>
        <mxCell id="sODzC4HWJ8rynniA_-NJ-159" value="Satisfactory&amp;nbsp;&lt;br&gt;evaluation&amp;nbsp;" style="text;html=1;strokeColor=none;fillColor=none;align=center;verticalAlign=middle;whiteSpace=wrap;rounded=0;fontStyle=1" parent="1" vertex="1">
          <mxGeometry x="60" y="-1030" width="80" height="30" as="geometry" />
        </mxCell>
        <mxCell id="sODzC4HWJ8rynniA_-NJ-160" value="Key Functional Flow Map (KFFM)&lt;br&gt;Denise Tepie" style="text;html=1;strokeColor=none;fillColor=none;align=center;verticalAlign=middle;whiteSpace=wrap;rounded=0;fontStyle=1" parent="1" vertex="1">
          <mxGeometry x="400" y="-1150" width="150" height="10" as="geometry" />
        </mxCell>
        <mxCell id="sODzC4HWJ8rynniA_-NJ-164" value="" style="endArrow=none;html=1;rounded=0;" parent="1" edge="1">
          <mxGeometry width="50" height="50" relative="1" as="geometry">
            <mxPoint x="190" y="-700" as="sourcePoint" />
            <mxPoint x="680" y="-700" as="targetPoint" />
          </mxGeometry>
        </mxCell>
        <mxCell id="sODzC4HWJ8rynniA_-NJ-166" value="" style="endArrow=classic;html=1;rounded=0;entryX=0.416;entryY=-0.084;entryDx=0;entryDy=0;entryPerimeter=0;" parent="1" target="sODzC4HWJ8rynniA_-NJ-112" edge="1">
          <mxGeometry width="50" height="50" relative="1" as="geometry">
            <mxPoint x="340" y="-700" as="sourcePoint" />
            <mxPoint x="380" y="-700" as="targetPoint" />
          </mxGeometry>
        </mxCell>
        <mxCell id="sODzC4HWJ8rynniA_-NJ-167" value="" style="endArrow=classic;html=1;rounded=0;entryX=0.5;entryY=0;entryDx=0;entryDy=0;" parent="1" target="sODzC4HWJ8rynniA_-NJ-113" edge="1">
          <mxGeometry width="50" height="50" relative="1" as="geometry">
            <mxPoint x="540" y="-700" as="sourcePoint" />
            <mxPoint x="570" y="-700" as="targetPoint" />
          </mxGeometry>
        </mxCell>
        <mxCell id="sODzC4HWJ8rynniA_-NJ-168" value="" style="endArrow=classic;html=1;rounded=0;" parent="1" edge="1">
          <mxGeometry width="50" height="50" relative="1" as="geometry">
            <mxPoint x="680" y="-700" as="sourcePoint" />
            <mxPoint x="680" y="-680" as="targetPoint" />
          </mxGeometry>
        </mxCell>
        <mxCell id="sODzC4HWJ8rynniA_-NJ-169" value="" style="endArrow=classic;html=1;rounded=0;" parent="1" edge="1">
          <mxGeometry width="50" height="50" relative="1" as="geometry">
            <mxPoint x="700" y="-700" as="sourcePoint" />
            <mxPoint x="700" y="-670" as="targetPoint" />
          </mxGeometry>
        </mxCell>
        <mxCell id="sODzC4HWJ8rynniA_-NJ-171" value="" style="endArrow=classic;startArrow=classic;html=1;rounded=0;fontSize=10;entryX=0.5;entryY=1;entryDx=0;entryDy=0;exitX=0.5;exitY=0;exitDx=0;exitDy=0;" parent="1" source="sODzC4HWJ8rynniA_-NJ-61" target="sODzC4HWJ8rynniA_-NJ-26" edge="1">
          <mxGeometry width="50" height="50" relative="1" as="geometry">
            <mxPoint x="540" y="-1010" as="sourcePoint" />
            <mxPoint x="540" y="-1030" as="targetPoint" />
          </mxGeometry>
        </mxCell>
        <mxCell id="sODzC4HWJ8rynniA_-NJ-172" value="" style="endArrow=none;html=1;rounded=0;fontSize=10;exitX=-0.008;exitY=-0.018;exitDx=0;exitDy=0;exitPerimeter=0;" parent="1" source="sODzC4HWJ8rynniA_-NJ-46" edge="1">
          <mxGeometry width="50" height="50" relative="1" as="geometry">
            <mxPoint x="610" y="-1040" as="sourcePoint" />
            <mxPoint x="820" y="-1070" as="targetPoint" />
          </mxGeometry>
        </mxCell>
        <mxCell id="sODzC4HWJ8rynniA_-NJ-173" value="" style="endArrow=none;html=1;rounded=0;fontSize=10;" parent="1" edge="1">
          <mxGeometry width="50" height="50" relative="1" as="geometry">
            <mxPoint x="820" y="-440" as="sourcePoint" />
            <mxPoint x="820" y="-1070" as="targetPoint" />
          </mxGeometry>
        </mxCell>
        <mxCell id="sODzC4HWJ8rynniA_-NJ-176" value="" style="endArrow=none;html=1;rounded=0;fontSize=10;" parent="1" edge="1">
          <mxGeometry width="50" height="50" relative="1" as="geometry">
            <mxPoint x="540" y="-440" as="sourcePoint" />
            <mxPoint x="820" y="-440" as="targetPoint" />
          </mxGeometry>
        </mxCell>
        <mxCell id="sODzC4HWJ8rynniA_-NJ-178" value="" style="endArrow=classic;html=1;rounded=0;fontSize=10;entryX=0.5;entryY=0;entryDx=0;entryDy=0;" parent="1" target="sODzC4HWJ8rynniA_-NJ-136" edge="1">
          <mxGeometry width="50" height="50" relative="1" as="geometry">
            <mxPoint x="540" y="-440" as="sourcePoint" />
            <mxPoint x="535" y="-420" as="targetPoint" />
          </mxGeometry>
        </mxCell>
        <mxCell id="sODzC4HWJ8rynniA_-NJ-181" value="" style="endArrow=none;html=1;rounded=0;fontSize=10;" parent="1" edge="1">
          <mxGeometry width="50" height="50" relative="1" as="geometry">
            <mxPoint x="800" y="-700" as="sourcePoint" />
            <mxPoint x="800" y="-860" as="targetPoint" />
          </mxGeometry>
        </mxCell>
        <mxCell id="sODzC4HWJ8rynniA_-NJ-182" value="" style="endArrow=classic;html=1;rounded=0;fontSize=10;" parent="1" edge="1">
          <mxGeometry width="50" height="50" relative="1" as="geometry">
            <mxPoint x="800" y="-860" as="sourcePoint" />
            <mxPoint x="780" y="-860" as="targetPoint" />
          </mxGeometry>
        </mxCell>
        <mxCell id="sODzC4HWJ8rynniA_-NJ-183" value="" style="endArrow=classic;html=1;rounded=0;fontSize=10;" parent="1" edge="1">
          <mxGeometry width="50" height="50" relative="1" as="geometry">
            <mxPoint x="190" y="-860" as="sourcePoint" />
            <mxPoint x="290" y="-860" as="targetPoint" />
          </mxGeometry>
        </mxCell>
        <mxCell id="sODzC4HWJ8rynniA_-NJ-184" value="" style="endArrow=none;html=1;rounded=0;fontSize=10;" parent="1" edge="1">
          <mxGeometry width="50" height="50" relative="1" as="geometry">
            <mxPoint x="170" y="-870" as="sourcePoint" />
            <mxPoint x="290" y="-870" as="targetPoint" />
          </mxGeometry>
        </mxCell>
        <mxCell id="sODzC4HWJ8rynniA_-NJ-186" value="" style="endArrow=none;html=1;rounded=0;fontSize=10;" parent="1" edge="1">
          <mxGeometry width="50" height="50" relative="1" as="geometry">
            <mxPoint x="170" y="-540" as="sourcePoint" />
            <mxPoint x="170" y="-870" as="targetPoint" />
          </mxGeometry>
        </mxCell>
        <mxCell id="sODzC4HWJ8rynniA_-NJ-187" value="" style="endArrow=classic;html=1;rounded=0;fontSize=10;" parent="1" edge="1">
          <mxGeometry width="50" height="50" relative="1" as="geometry">
            <mxPoint x="170" y="-540" as="sourcePoint" />
            <mxPoint x="484" y="-540" as="targetPoint" />
            <Array as="points" />
          </mxGeometry>
        </mxCell>
        <mxCell id="sODzC4HWJ8rynniA_-NJ-188" value="" style="endArrow=none;html=1;rounded=0;fontSize=10;" parent="1" edge="1">
          <mxGeometry width="50" height="50" relative="1" as="geometry">
            <mxPoint x="780" y="-870" as="sourcePoint" />
            <mxPoint x="810" y="-870" as="targetPoint" />
          </mxGeometry>
        </mxCell>
        <mxCell id="sODzC4HWJ8rynniA_-NJ-189" value="" style="endArrow=none;html=1;rounded=0;fontSize=10;" parent="1" edge="1">
          <mxGeometry width="50" height="50" relative="1" as="geometry">
            <mxPoint x="820" y="-550" as="sourcePoint" />
            <mxPoint x="820" y="-870" as="targetPoint" />
          </mxGeometry>
        </mxCell>
        <mxCell id="sODzC4HWJ8rynniA_-NJ-190" value="" style="endArrow=none;html=1;rounded=0;fontSize=10;" parent="1" edge="1">
          <mxGeometry width="50" height="50" relative="1" as="geometry">
            <mxPoint x="810" y="-550" as="sourcePoint" />
            <mxPoint x="810" y="-870" as="targetPoint" />
          </mxGeometry>
        </mxCell>
        <mxCell id="sODzC4HWJ8rynniA_-NJ-191" value="" style="endArrow=classic;html=1;rounded=0;fontSize=10;" parent="1" edge="1">
          <mxGeometry width="50" height="50" relative="1" as="geometry">
            <mxPoint x="810" y="-550" as="sourcePoint" />
            <mxPoint x="590" y="-550" as="targetPoint" />
          </mxGeometry>
        </mxCell>
      </root>
    </mxGraphModel>
  </diagram>
</mxfile>
